/* XPM */
static char *_d0415c23cc447a088c351af63eaaed0dVYicjAaAMEPGlGl[] = {
/* columns rows colors chars-per-pixel */
"82 94 214 2 ",
"   c None",
".  c #003E70",
"X  c #004779",
"o  c #00477A",
"O  c #00487B",
"+  c #00497B",
"@  c #00487C",
"#  c #00497D",
"$  c #004A7C",
"%  c #004A7D",
"&  c #004B7E",
"*  c #004C7F",
"=  c #004D7F",
"-  c #004D80",
";  c #004E81",
":  c #004F81",
">  c #004E83",
",  c #004F84",
"<  c #005082",
"1  c #005083",
"2  c #005183",
"3  c #005184",
"4  c #005185",
"5  c #005284",
"6  c #005285",
"7  c #005385",
"8  c #005386",
"9  c #005486",
"0  c #005588",
"q  c #005789",
"w  c #00578A",
"e  c #00588A",
"r  c #00598B",
"t  c #005A8C",
"y  c #005B8C",
"u  c #005B8D",
"i  c #005C8E",
"p  c #005D8E",
"a  c #005C8F",
"s  c #005D8F",
"d  c #005D90",
"f  c #005E90",
"g  c #005E91",
"h  c #005F91",
"j  c #025E90",
"k  c #045E92",
"l  c #006092",
"z  c #006093",
"x  c #006193",
"c  c #006294",
"v  c #006395",
"b  c #046395",
"n  c #006496",
"m  c #006597",
"M  c #0F6395",
"N  c #006698",
"B  c #006799",
"V  c #036698",
"C  c #046799",
"Z  c #04679A",
"A  c #0F6598",
"S  c #0F6799",
"D  c #05689A",
"F  c #07689D",
"G  c #0F6A9C",
"H  c #0A6C9E",
"J  c #0B6D9F",
"K  c #106B9D",
"L  c #0F71A3",
"P  c #1071A3",
"I  c #1072A4",
"U  c #1273A4",
"Y  c #1273A5",
"T  c #1374A6",
"R  c #1474A6",
"E  c #1475A6",
"W  c #1575A7",
"Q  c #1576A7",
"!  c #1C74A5",
"~  c #1676A8",
"^  c #1676AA",
"/  c #1877A8",
"(  c #1F77A8",
")  c #1779AD",
"_  c #1878A9",
"`  c #1E7CAE",
"'  c #207EB0",
"]  c #2280B1",
"[  c #2280B2",
"{  c #2481B3",
"}  c #2583B4",
"|  c #2684B5",
" . c #2784B5",
".. c #2C81B0",
"X. c #2A87B8",
"o. c #2B88B8",
"O. c #2C88B9",
"+. c #2D89B9",
"@. c #2E8AB9",
"#. c #2F8BBC",
"$. c #3081B3",
"%. c #368BB9",
"&. c #308CBD",
"*. c #318DBD",
"=. c #3792BD",
"-. c #3691C2",
";. c #3892C3",
":. c #4297C8",
">. c #419ACD",
",. c #429BCC",
"<. c #439BCC",
"1. c #459DCE",
"2. c #479DCE",
"3. c #479ECF",
"4. c #489DCE",
"5. c #479FD0",
"6. c #469ED2",
"7. c #4CA3CC",
"8. c #4EA1CE",
"9. c #49A0D1",
"0. c #52A4D4",
"q. c #55A6D7",
"w. c #55AADE",
"e. c #5EAFE0",
"r. c #5EB0E1",
"t. c #5EB1E1",
"y. c #5EB2E2",
"u. c #5FB3E3",
"i. c #67BAEB",
"p. c #68BAEB",
"a. c #6ABCED",
"s. c #6EBDED",
"d. c #6FBEED",
"f. c #6FBEEE",
"g. c #6EBFF0",
"h. c #73C5EF",
"j. c #6EC0F0",
"k. c #70C1F3",
"l. c #75C4F2",
"z. c #74C4F4",
"x. c #76C4F4",
"c. c #76C7F7",
"v. c #77C7F7",
"b. c #79CCF6",
"n. c #78C8F8",
"m. c #79C9F9",
"M. c #79C8FB",
"N. c #7BCAFA",
"B. c #7DCCFC",
"V. c #7FCDFD",
"C. c #7ECCFF",
"Z. c #7ECDFF",
"A. c #7FCDFF",
"S. c #7FCEFF",
"D. c #80CEFF",
"F. c #80CFFF",
"G. c #81CFFF",
"H. c #82CFFF",
"J. c #82D0F8",
"K. c #82D0FF",
"L. c #83D0FF",
"P. c #83D1FF",
"I. c #85D3FC",
"U. c #84D1FF",
"Y. c #84D2FF",
"T. c #85D2FF",
"R. c #85D3FF",
"E. c #86D3FF",
"W. c #87D3FF",
"Q. c #84D4FD",
"!. c #86D4FF",
"~. c #87D4FF",
"^. c #88D4FD",
"/. c #88D5FF",
"(. c #89D5FF",
"). c #89D6FF",
"_. c #8AD7FF",
"`. c #8BD7FF",
"'. c #8AD8FF",
"]. c #8BD8FF",
"[. c #8CD8FF",
"{. c #8DD9FF",
"}. c #8EDAFF",
"|. c #8FDAFF",
" X c #8FDBFF",
".X c #8DDCFF",
"XX c #8FDCFF",
"oX c #8FDDFF",
"OX c #90DBFF",
"+X c #91DCFF",
"@X c #91DDFF",
"#X c #92DDFF",
"$X c #93DDFF",
"%X c #93DEFF",
"&X c #94DEFF",
"*X c #94DFFF",
"=X c #95DFFF",
"-X c #93E0FF",
";X c #95E0FF",
":X c #94E1FF",
">X c #95E1FF",
",X c #96E1FF",
"<X c #96E2FF",
"1X c #96E3FF",
"2X c #97E3FF",
"3X c #98E2FF",
"4X c #98E3FF",
"5X c #99E3FF",
"6X c #99E4FF",
"7X c #9AE4FF",
"8X c #9BE4FF",
"9X c #9FE8FF",
"0X c #A8F0FF",
"qX c #AEF5FF",
/* pixels */
"                                                                                                                                                                    ",
"                                                                                  G.G.                                                                              ",
"                                                                              G.G.G.G.G.G.                                                                          ",
"                                                                          G.G.G.G.G.G.G.G.G.G.                                                                      ",
"                                                                        G.G.G.G.G.G.G.G.G.G.G.G.G.                                                                  ",
"                                                                    G.G.G.G.G.G.G.G.G.G.G.G.G.G.G.G.                                                                ",
"                                                                G.G.G.G.G.G.G.G.G.G.G.G.G.G.G.G.G.G.G.G.                                                            ",
"                                                            G.G.G.G.G.G.G.G.G.G.G.G.G.G.G.G.G.G.G.G.G.G.G.G.                                                        ",
"                                                          G.G.G.G.G.G.G.G.G.G.G.G.G.G.G.G.G.G.G.G.G.G.G.G.G.G.                                                      ",
"                                                      G.G.G.G.G.G.G.G.G.G.G.G.G.G.G.G.G.G.G.G.G.G.G.G.G.G.G.G.G.G.                                                  ",
"                                                  G.G.G.G.G.G.G.G.G.G.G.G.G.G.G.G.G.G.G.G.G.G.G.G.G.G.G.G.G.G.G.G.G.G.                                              ",
"                                              G.G.G.G.G.G.G.G.G.G.G.G.G.G.G.G.G.G.G.G.G.G.G.G.G.G.G.G.G.G.G.G.G.G.G.G.G.G.                                          ",
"                                            G.G.G.G.G.G.G.G.G.G.G.G.G.G.G.G.G.G.G.G.G.G.G.G.G.G.G.G.G.G.G.G.G.G.G.G.G.G.G.G.                                        ",
"                                        G.G.G.G.G.G.G.G.G.G.G.G.G.G.G.G.G.G.G.G.G.G.G.G.G.G.G.G.G.G.G.G.G.G.G.G.G.G.G.G.G.G.G.G.                                    ",
"                                    G.G.G.G.G.G.G.G.G.G.G.G.G.G.G.G.G.G.G.G.G.G.G.G.G.G.G.G.G.G.G.G.G.G.G.G.G.G.G.G.G.G.G.G.G.G.G.G.                                ",
"                                G.G.G.G.G.G.G.G.G.G.G.G.G.G.G.G.G.G.G.G.G.G.G.G.G.G.G.G.G.G.G.G.G.G.G.G.G.G.G.G.G.G.G.G.G.G.G.G.G.G.G.G.                            ",
"                              G.G.G.G.G.G.G.G.G.G.G.G.G.G.G.G.G.G.G.G.G.G.G.G.G.G.G.G.G.G.G.G.G.G.G.G.G.G.G.G.G.G.G.G.G.G.G.G.G.G.G.G.G.G.                          ",
"                          G.G.G.G.G.G.G.G.G.G.G.G.G.G.G.G.G.G.G.G.G.G.G.G.G.G.G.G.G.G.G.G.G.G.G.G.G.G.G.G.G.G.G.G.G.G.G.G.G.G.G.G.G.G.G.G.G.G.                      ",
"                      G.G.G.G.G.G.G.G.G.G.G.G.G.G.G.G.G.G.G.G.G.G.G.G.G.G.G.G.G.G.G.G.G.G.G.G.G.G.G.G.G.G.G.G.G.G.G.G.G.G.G.G.G.G.G.G.G.G.G.G.G.G.                  ",
"                  G.G.G.G.G.G.G.G.G.G.G.G.G.G.G.G.G.G.G.G.G.G.G.G.G.G.G.G.G.G.G.G.G.G.G.G.G.G.G.G.G.G.G.G.G.G.G.G.G.G.G.G.G.G.G.G.G.G.G.G.G.G.G.G.G.G.              ",
"                G.G.G.G.G.G.G.G.G.G.G.G.G.G.G.G.G.G.G.G.G.G.G.G.G.G.G.G.G.G.G.G.G.G.G.G.G.G.G.G.G.G.G.G.G.G.G.G.G.G.G.G.G.G.G.G.G.G.G.G.G.G.G.G.G.G.G.G.            ",
"            G.G.G.G.G.G.G.G.G.G.G.G.G.G.G.G.G.G.G.G.G.G.G.G.G.G.G.G.G.G.G.G.G.G.G.G.G.G.G.G.G.G.G.G.G.G.G.G.G.G.G.G.G.G.G.G.G.G.G.G.G.G.G.G.G.G.G.G.G.G.G.G.        ",
"        G.G.G.G.G.G.G.G.G.G.G.G.G.G.G.G.G.G.G.G.G.G.G.G.G.G.G.G.G.G.G.G.G.G.G.G.G.G.G.G.G.G.G.G.G.G.G.G.G.G.G.G.G.G.G.G.G.G.G.G.G.G.G.G.G.G.G.G.G.G.G.G.G.G.G.G.    ",
"      G.G.G.G.G.G.G.G.G.G.G.G.G.G.G.G.G.G.G.G.G.G.G.G.G.G.G.G.G.G.G.G.G.G.G.G.G.G.G.G.G.G.G.G.G.G.G.G.G.G.G.G.G.G.G.G.G.G.G.G.G.G.G.G.G.G.G.G.G.G.G.G.G.G.G.G.G.G.  ",
"  G.G.G.G.G.G.G.G.G.G.G.G.G.G.G.G.G.G.G.G.G.G.G.G.G.G.G.G.G.G.G.G.G.G.G.G.G.G.G.G.G.G.G.G.G.G.G.G.G.G.G.G.G.G.G.G.G.G.G.G.G.G.G.G.G.G.G.G.G.G.G.G.G.G.G.G.G.G.G.G.G.",
"  G.G.G.G.G.G.G.G.G.G.G.G.G.G.G.G.G.G.G.G.G.G.G.G.G.G.G.G.G.G.G.G.G.G.G.G.G.G.G.G.G.G.G.G.G.G.G.G.G.G.G.G.G.G.G.G.G.G.G.G.G.G.G.G.G.G.G.G.G.G.G.G.G.G.G.G.G.G.G.G.G.",
"  G.G.G.G.G.G.G.G.G.G.G.G.G.G.G.G.G.G.G.G.G.G.G.G.G.G.G.G.G.G.G.G.G.G.G.G.G.G.G.G.G.G.G.G.G.G.G.G.G.G.G.G.G.G.G.G.G.G.G.G.G.G.G.G.G.G.G.G.G.G.G.G.G.G.G.G.G.G.G.G.G.",
"  G.G.G.G.G.G.G.G.G.G.G.G.G.G.G.G.G.G.G.G.G.G.G.G.G.G.G.G.G.G.G.G.G.G.G.G.G.G.G.G.G.G.G.G.G.G.G.G.G.G.G.G.G.G.G.G.G.G.G.G.G.G.G.G.G.G.G.G.G.G.G.G.G.G.G.G.G.G.G.G.G.",
"  G.G.G.G.G.G.G.G.G.G.G.G.G.G.G.G.G.G.G.G.G.G.G.G.G.G.G.G.G.G.G.G.G.G.G.G.G.G.G.G.G.G.G.G.G.G.G.G.G.G.G.G.G.G.G.G.G.G.G.G.G.G.G.G.G.G.G.G.G.G.G.G.G.G.G.G.G.G.G.G.G.",
"  G.G.G.G.G.G.G.G.G.G.G.G.G.G.G.G.G.G.G.G.G.G.G.G.G.G.G.G.G.G.G.G.G.G.G.G.G.G.G.G.G.G.G.G.G.G.G.G.G.G.G.G.G.G.G.G.G.G.G.G.G.G.G.G.G.G.G.G.G.G.G.G.G.G.G.G.G.G.G.G.G.",
"  G.G.G.G.G.G.G.G.G.G.G.G.G.G.G.G.G.G.G.G.G.G.G.G.G.G.G.G.G.G.G.G.G.G.G.G.G.G.G.G.G.G.G.G.G.G.G.G.G.G.G.G.G.G.G.G.G.G.G.G.G.G.G.G.G.G.G.G.G.G.G.G.G.G.G.G.G.G.G.G.G.",
"  G.G.G.G.G.G.G.G.G.G.G.G.G.G.G.G.G.G.G.G.G.G.G.G.G.G.G.G.G.G.G.G.G.G.G.G.G.G.G.G.G.G.G.G.G.G.G.G.G.G.G.G.G.G.G.G.G.G.G.G.G.G.G.G.G.G.G.G.G.G.G.G.G.G.G.G.G.G.G.G.G.",
"  G.G.G.G.G.G.G.G.G.G.G.G.G.G.G.G.K.K.K./.T.~.~.~.~.~.~.~.~.~.~.~.~.~.~.~.~./.T.G.G.G.G.G.G.G.G.G.G.G.G.G.G.G.G.G.G.G.G.G.G.G.G.G.G.G.G.G.G.G.G.G.G.G.G.G.G.G.G.G.G.",
"  G.G.G.G.G.G.G.G.G.G.G.G.G.G.G.Z.~.;X;XT.T.T.T.T.T.T.T.T.T.T.T.T.T.T.T.T.T.T.T.G.G.G.G.G.G.G.G.G.G.G.G.G.G.G.G.G.G.G.G.G.G.G.G.G.G.G.G.G.G.G.G.G.G.G.G.G.G.G.G.G.G.",
"  G.G.G.G.G.G.G.G.G.G.G.G.G.G.Z.$X$Xw.| W T W W W W W W W W W W W W W W W W H [ G./.G.G.G.G.G.G.G.G.G.G.G.G.G.G.G.G.G.G.G.G.G.G.G.G.G.G.G.G.G.G.G.G.G.G.G.G.G.G.G.G.",
"  G.G.G.G.G.G.G.G.G.G.G.G.G.Z.;XJ.) * > w w w w w w w w w w w w w w w w w w * A K./.G.G.G.G.G.G.G.G.G.G.G.G.G.G.G.G.G.G.G.G.G.G.G.G.G.G.G.G.G.G.G.G.G.G.G.G.G.G.G.G.",
"  G.G.G.G.G.G.G.G.G.G.G.G.Z. XQ.G * n n v n n n n n n n n n n n n n n n n n r P G./.G.G.G.G.G.G.G.G.G.G.G.G.G.G.G.G.G.G.G.G.G.G.G.G.G.G.G.G.G.G.G.G.G.G.G.G.G.G.G.G.",
"  G.G.G.G.G.G.G.G.G.G.G.G.G.;X%.O n n x r r r r r r r r r r r r r r r r r r * S K./.G.G.G.G.G.G.G.G.G.G.G.G.G.G.G.G.G.G.G.G.G.G.G.G.G.G.G.G.G.G.G.G.G.G.G.G.G.G.G.G.",
"  G.G.G.G.G.G.G.G.G.G.G.K. Xx.k p n x D Y P P P P P P P L P P L P P P P P L D ` G./.G.G.G.G.G.G.G.G.G.G.G.G.G.G.G.G.G.G.G.G.G.G.G.G.G.G.G.G.G.G.G.G.G.G.G.G.G.G.G.G.",
"  G.G.G.G.G.G.G.G.G.G.G.K.;Xq.2 n n 7 o.$XK.G.G.G.G.G.G.G.G.K.K.G.G.G.G.G.G.G.G.G.G.G.G.G.G.G.G.G.G.G.G.G.G.G.G.G.G.G.G.G.G.G.G.G.G.G.G.G.G.G.G.G.G.G.G.G.G.G.G.G.G.",
"  G.G.G.G.G.G.G.G.G.G.G.G.4X4.7 n n 7 O.4X/././.~.~./.~.~./.~.~./././././././.~.G.G.G.Z.T.$XOXOX X$XOX$X X$XOX$XOX$XOX$XOX$XOX$X XT.G.G.G.G.G.G.G.G.G.G.G.G.G.G.G.G.",
"  G.G.G.G.G.G.G.G.G.G.G.G.4X4.> n n 7 X.*XH.G.G.G.G.K.K.K.K.G.G.G.G.G.G.G.G.K.G.G.G.G.T.N.i.a.a.a.a.a.a.a.a.a.a.a.a.a.a.a.a.a.i.k./.4X/.Z.G.G.G.G.G.G.G.G.G.G.G.G.G.",
"  G.G.G.G.G.G.G.G.G.G.G.G.4X5.7 n n 7 X.*XT.G.G.G.G.G.G.G.G.G.G.G.G.G.G.G.G.G.G.G.G.G.;Xy.7 p h x h x h x h x h h x h x x h x p v P 5.$X$XZ.G.G.G.G.G.G.G.G.G.G.G.G.",
"  G.G.G.G.G.G.G.G.G.G.G.G.4X5., n n 7 X.OXH.G.G.G.G.G.G.G.G.G.G.G.G.G.G.G.G.G.G.G.G.K.;Xy.7 p x h h h h h h h x h h h h h h h x h 7 @ ^ T.$XZ.G.G.G.G.G.G.G.G.G.G.G.",
"  G.G.G.G.G.G.G.G.G.G.G.G.4X5.2 n v 7 X.*XH.H.G.G.G.G.G.G.G.G.G.G.G.G.G.G.G.G.G.G.G.G.;Xy.r n n n v n n n n n n n n n n v n n n n n n O ( .XT.G.G.G.G.G.G.G.G.G.G.G.",
"  G.G.G.G.G.G.G.G.G.G.G.G.4X5.7 n v , X.OXH.G.G.G.G.G.G.G.G.G.G.G.G.G.G.G.G.G.G.G.G.G.;Xy.w x n N p 2 2 2 7 7 2 2 7 2 7 7 2 2 7 > p B n @ 8.8XG.G.G.G.G.G.G.G.G.G.G.",
"  G.G.G.G.G.G.G.G.G.G.G.G.4X5.7 n n 7 X.*XH.G.G.G.G.G.G.G.G.G.G.G.G.G.G.G.G.G.G.G.G.G.;Xy.w x n p _ ;.#.#.#.#.#.#.#.#.#.#.#.#.#.-.Y h n 9 ! /.~.G.G.G.G.G.G.G.G.G.G.",
"  G.G.G.G.G.G.G.G.G.G.G.G.=X5.7 n n 7 O.OXT.G.G.G.G.G.G.G.G.G.G.G.G.G.G.G.G.G.G.G.G.G.;Xy.r x n > 7.qX$X$X-X$X$X-X$X$X-X$X$X$X*X0X=., n h b z. XG.G.G.G.G.G.G.G.G.G.",
"  G.G.G.G.G.G.G.G.G.G.G.G.4X5.7 v N 7 X.OXH.G.G.G.G.G.G.G.G.G.G.G.G.G.G.G.G.G.G.G.G.G.;Xy.r c n 2 ,.8XK.K.K.K.K.K.K.K.K.K.K.K.T.;X*.7 n x h f. XG.G.G.G.G.G.G.G.G.G.",
"  G.G.G.G.G.G.G.G.G.G.G.G.4X5.2 v N 7 X.*XH.G.G.G.G.G.G.G.G.G.G.G.G.G.G.G.G.G.G.G.G.G.;Xy.r c n > ,.4XK.G.G.G.G.G.G.G.G.G.G.G.G.;X#.2 n h v g. XG.G.G.G.G.G.G.G.G.G.",
"  G.G.G.G.G.G.G.G.G.G.G.G.4X5.7 v v 7 X.$XH.G.G.G.G.G.G.G.G.G.G.G.G.G.G.G.G.G.G.G.G.G.;Xy.r c n 2 <.4XG.G.G.G.G.G.G.G.G.G.G.G.K.$X*.7 v p v f. XG.G.G.G.G.G.G.G.G.G.",
"  G.G.G.G.G.G.G.G.G.G.G.G.4X5.2 v v 7 X.$XG.G.G.G.G.G.G.G.G.G.G.G.G.G.G.G.G.G.G.G.G.K.;Xy.q x n > <.4XG.G.G.G.G.G.G.G.G.G.G.G.K.;X$.. 2 - 2 f..XG.G.G.G.G.G.G.G.G.G.",
"  G.G.G.G.G.G.G.G.G.G.G.G.=X5.7 n n 7 X.$XT.G.G.G.G.G.G.G.G.K.K.G.G.G.G.G.G.G.G.G.G.G.;Xy.r x n 2 <.4XG.G.G.G.G.G.G.G.G.G.G.G.K. X5./ X.[ } z. XG.G.G.G.G.G.G.G.G.G.",
"  G.G.G.G.G.G.G.G.G.G.G.G.4X5.2 n n 7 X.$XK.G.G.G.G.G.G.G.G.Z.K.G.G.G.G.G.G.G.G.G.G.G.;Xt.r x n 2 <.4XG.G.G.G.G.G.G.G.G.G.G.G.G.G./.*XOX$XOXG.Z.G.G.G.G.G.G.G.G.G.G.",
"  G.G.G.G.G.G.G.G.G.G.G.G.4X4.7 n n 2 o.$XG.G.G.G.G.G.G.G.K.K.K.K.K.G.G.K.K.G.G.G.G.G.;Xy.r c n > <.4XG.G.G.G.G.G.G.G.G.G.G.G.G.G.K.K.K.K.K.G.G.G.G.G.G.G.G.G.G.G.G.",
"  G.G.G.G.G.G.G.G.G.G.G.G.4X4.2 n n 7 o.;XT.K.K.T.T.T.T.K.T.K.T.K.T.T.K.K.T.T.T.G.G.G.;Xy.r c n 2 <.4XG.G.G.G.G.G.G.G.G.G.G.G.G.G.K.K.G.K.K.G.G.G.G.G.G.G.G.G.G.G.G.",
"  G.G.G.G.G.G.G.G.G.G.G.G.;X0.2 n n 2 #.9X X X X[.[. X X[.[. XOX X]. X X/. X X/.G.G.G.;Xt.r c n 2 <.4XG.G.G.G.G.G.G.G.G.G.G.G.G.G.G.G.G.G.G.G.G.G.G.G.G.G.G.G.G.G.G.",
"  G.G.G.G.G.G.G.G.G.G.G.G.OXd.p x n x H { ' ' ' ' ' ' ' ' ' ' ' ] ` ' ' ' ' W +.G./.G.*Xy.q c n > <.4XG.G.G.G.G.G.G.G.G.G.G.G.G.G.G.G.G.G.G.G.G.G.G.G.G.G.G.G.G.G.G.",
"  G.G.G.G.G.G.G.G.G.G.G.G.G.*X..@ B N x 2 9 9 9 7 7 9 9 7 7 9 9 9 9 9 9 9 9 O M G./.G.;Xy.q x n 2 <.4XG.G.G.G.G.G.G.G.G.G.G.G.G.G.G.G.G.G.G.G.G.G.G.G.G.G.G.G.G.G.G.",
"  G.G.G.G.G.G.G.G.G.G.G.G.G.$Xb.k > n n n n n n n n n n n n n v n n n n n n r P G./.G.;Xy.r x n 2 <.4XG.G.G.G.G.G.G.G.G.G.G.G.G.G.G.G.G.G.G.G.G.G.G.G.G.G.G.G.G.G.G.",
"  G.G.G.G.G.G.G.G.G.G.G.G.G.Z.4Xh.F @ 9 p p p p p p a a p a a p a p a p p p > K G./.G.;Xe.> r p X :.8XG.G.G.G.G.G.G.G.G.G.G.G.G.G.G.G.G.G.G.G.G.G.G.G.G.G.G.G.G.G.G.",
"  G.G.G.G.G.G.G.G.G.G.G.G.G.G.G.4X^.>.W C C C D C F D C D C C D C D C C C D p W G./.G.*Xi.h n D 9 1.;XG.G.G.G.G.G.G.G.G.G.G.G.G.G.G.G.G.G.G.G.G.G.G.G.G.G.G.G.G.G.G.",
"  G.G.G.G.G.G.G.G.G.G.G.G.G.G.G.G./.4X[.N.v.n.n.N.v.N.c.n.n.n.n.N.v.v.v.n.n.c.n.G.G.G.G.N.x.v.n.c.Z.T.G.G.G.G.G.G.G.G.G.G.G.G.G.G.G.G.G.G.G.G.G.G.G.G.G.G.G.G.G.G.G.",
"  G.G.G.G.G.G.G.G.G.G.G.G.G.G.G.G.G.G.T.[.[./. X/.[.[.[.[.[.[.[.[.[.[.[. X/. X[.G.G.G.G.G. X[.[. XT.Z.G.G.G.G.G.G.G.G.G.G.G.G.G.G.G.G.G.G.G.G.G.G.G.G.G.G.G.G.G.G.G.",
"  G.G.G.G.G.G.G.G.G.G.G.G.G.G.G.G.G.G.G.G.G.G.G.G.G.G.G.G.G.G.G.G.G.G.G.G.G.G.G.G.G.G.G.G.G.G.G.G.G.G.G.G.G.G.G.G.G.G.G.G.G.G.G.G.G.G.G.G.G.G.G.G.G.G.G.G.G.G.G.G.G.",
"  G.G.G.G.G.G.G.G.G.G.G.G.G.G.G.G.G.G.G.G.G.G.G.G.G.G.G.G.G.G.G.G.G.G.G.G.G.G.G.G.G.G.G.G.G.G.G.G.G.G.G.G.G.G.G.G.G.G.G.G.G.G.G.G.G.G.G.G.G.G.G.G.G.G.G.G.G.G.G.G.G.",
"  G.G.G.G.G.G.G.G.G.G.G.G.G.G.G.G.G.G.G.G.G.G.G.G.G.G.G.G.G.G.G.G.G.G.G.G.G.G.G.G.G.G.G.G.G.G.G.G.G.G.G.G.G.G.G.G.G.G.G.G.G.G.G.G.G.G.G.G.G.G.G.G.G.G.G.G.G.G.G.G.G.",
"  G.G.G.G.G.G.G.G.G.G.G.G.G.G.G.G.G.G.G.G.G.G.G.G.G.G.G.G.G.G.G.G.G.G.G.G.G.G.G.G.G.G.G.G.G.G.G.G.G.G.G.G.G.G.G.G.G.G.G.G.G.G.G.G.G.G.G.G.G.G.G.G.G.G.G.G.G.G.G.G.G.",
"  G.G.G.G.G.G.G.G.G.G.G.G.G.G.G.G.G.G.G.G.G.G.G.G.G.G.G.G.G.G.G.G.G.G.G.G.G.G.G.G.G.G.G.G.G.G.G.G.G.G.G.G.G.G.G.G.G.G.G.G.G.G.G.G.G.G.G.G.G.G.G.G.G.G.G.G.G.G.G.G.G.",
"  G.G.G.G.G.G.G.G.G.G.G.G.G.G.G.G.G.G.G.G.G.G.G.G.G.G.G.G.G.G.G.G.G.G.G.G.G.G.G.G.G.G.G.G.G.G.G.G.G.G.G.G.G.G.G.G.G.G.G.G.G.G.G.G.G.G.G.G.G.G.G.G.G.G.G.G.G.G.G.G.G.",
"  G.G.G.G.G.G.G.G.G.G.G.G.G.G.G.G.G.G.G.G.G.G.G.G.G.G.G.G.G.G.G.G.G.G.G.G.G.G.G.G.G.G.G.G.G.G.G.G.G.G.G.G.G.G.G.G.G.G.G.G.G.G.G.G.G.G.G.G.G.G.G.G.G.G.G.G.G.G.G.G.G.",
"  G.G.G.G.G.G.G.G.G.G.G.G.G.G.G.G.G.G.G.G.G.G.G.G.G.G.G.G.G.G.G.G.G.G.G.G.G.G.G.G.G.G.G.G.G.G.G.G.G.G.G.G.G.G.G.G.G.G.G.G.G.G.G.G.G.G.G.G.G.G.G.G.G.G.G.G.G.G.G.G.G.",
"      G.G.G.G.G.G.G.G.G.G.G.G.G.G.G.G.G.G.G.G.G.G.G.G.G.G.G.G.G.G.G.G.G.G.G.G.G.G.G.G.G.G.G.G.G.G.G.G.G.G.G.G.G.G.G.G.G.G.G.G.G.G.G.G.G.G.G.G.G.G.G.G.G.G.G.G.G.G.  ",
"        G.G.G.G.G.G.G.G.G.G.G.G.G.G.G.G.G.G.G.G.G.G.G.G.G.G.G.G.G.G.G.G.G.G.G.G.G.G.G.G.G.G.G.G.G.G.G.G.G.G.G.G.G.G.G.G.G.G.G.G.G.G.G.G.G.G.G.G.G.G.G.G.G.G.G.G.    ",
"            G.G.G.G.G.G.G.G.G.G.G.G.G.G.G.G.G.G.G.G.G.G.G.G.G.G.G.G.G.G.G.G.G.G.G.G.G.G.G.G.G.G.G.G.G.G.G.G.G.G.G.G.G.G.G.G.G.G.G.G.G.G.G.G.G.G.G.G.G.G.G.G.        ",
"                G.G.G.G.G.G.G.G.G.G.G.G.G.G.G.G.G.G.G.G.G.G.G.G.G.G.G.G.G.G.G.G.G.G.G.G.G.G.G.G.G.G.G.G.G.G.G.G.G.G.G.G.G.G.G.G.G.G.G.G.G.G.G.G.G.G.G.G.            ",
"                  G.G.G.G.G.G.G.G.G.G.G.G.G.G.G.G.G.G.G.G.G.G.G.G.G.G.G.G.G.G.G.G.G.G.G.G.G.G.G.G.G.G.G.G.G.G.G.G.G.G.G.G.G.G.G.G.G.G.G.G.G.G.G.G.G.G.              ",
"                      G.G.G.G.G.G.G.G.G.G.G.G.G.G.G.G.G.G.G.G.G.G.G.G.G.G.G.G.G.G.G.G.G.G.G.G.G.G.G.G.G.G.G.G.G.G.G.G.G.G.G.G.G.G.G.G.G.G.G.G.G.G.                  ",
"                          G.G.G.G.G.G.G.G.G.G.G.G.G.G.G.G.G.G.G.G.G.G.G.G.G.G.G.G.G.G.G.G.G.G.G.G.G.G.G.G.G.G.G.G.G.G.G.G.G.G.G.G.G.G.G.G.G.G.                      ",
"                              G.G.G.G.G.G.G.G.G.G.G.G.G.G.G.G.G.G.G.G.G.G.G.G.G.G.G.G.G.G.G.G.G.G.G.G.G.G.G.G.G.G.G.G.G.G.G.G.G.G.G.G.G.G.                          ",
"                                G.G.G.G.G.G.G.G.G.G.G.G.G.G.G.G.G.G.G.G.G.G.G.G.G.G.G.G.G.G.G.G.G.G.G.G.G.G.G.G.G.G.G.G.G.G.G.G.G.G.G.G.                            ",
"                                    G.G.G.G.G.G.G.G.G.G.G.G.G.G.G.G.G.G.G.G.G.G.G.G.G.G.G.G.G.G.G.G.G.G.G.G.G.G.G.G.G.G.G.G.G.G.G.G.                                ",
"                                        G.G.G.G.G.G.G.G.G.G.G.G.G.G.G.G.G.G.G.G.G.G.G.G.G.G.G.G.G.G.G.G.G.G.G.G.G.G.G.G.G.G.G.G.                                    ",
"                                            G.G.G.G.G.G.G.G.G.G.G.G.G.G.G.G.G.G.G.G.G.G.G.G.G.G.G.G.G.G.G.G.G.G.G.G.G.G.G.G.                                        ",
"                                              G.G.G.G.G.G.G.G.G.G.G.G.G.G.G.G.G.G.G.G.G.G.G.G.G.G.G.G.G.G.G.G.G.G.G.G.G.G.                                          ",
"                                                  G.G.G.G.G.G.G.G.G.G.G.G.G.G.G.G.G.G.G.G.G.G.G.G.G.G.G.G.G.G.G.G.G.G.                                              ",
"                                                      G.G.G.G.G.G.G.G.G.G.G.G.G.G.G.G.G.G.G.G.G.G.G.G.G.G.G.G.G.G.                                                  ",
"                                                          G.G.G.G.G.G.G.G.G.G.G.G.G.G.G.G.G.G.G.G.G.G.G.G.G.G.                                                      ",
"                                                            G.G.G.G.G.G.G.G.G.G.G.G.G.G.G.G.G.G.G.G.G.G.G.G.                                                        ",
"                                                                G.G.G.G.G.G.G.G.G.G.G.G.G.G.G.G.G.G.G.G.                                                            ",
"                                                                    G.G.G.G.G.G.G.G.G.G.G.G.G.G.G.G.                                                                ",
"                                                                      G.G.G.G.G.G.G.G.G.G.G.G.G.G.                                                                  ",
"                                                                          G.G.G.G.G.G.G.G.G.G.                                                                      ",
"                                                                              G.G.G.G.G.G.                                                                          "
};
