<?xml version="1.0" encoding="utf-8"?>
<!-- Generator: Adobe Illustrator 25.2.1, SVG Export Plug-In . SVG Version: 6.00 Build 0)  -->
<svg version="1.1" id="Layer_2" xmlns="http://www.w3.org/2000/svg" xmlns:xlink="http://www.w3.org/1999/xlink" x="0px" y="0px"
	 viewBox="0 0 3000 3000" enable-background="new 0 0 3000 3000" xml:space="preserve">
<g>
	<g>
		<path fill="#81CFFF" d="M2482.268,2045.092V954.908c0-13.626-7.27-26.218-19.07-33.031L1519.07,376.785
			c-11.801-6.813-26.34-6.813-38.141,0L536.802,921.877c-11.801,6.813-19.07,19.404-19.07,33.031v1090.185
			c0,13.626,7.27,26.218,19.07,33.031l944.128,545.093c11.801,6.813,26.34,6.813,38.141,0l944.128-545.093
			C2474.999,2071.31,2482.268,2058.719,2482.268,2045.092z"/>
	</g>
	<g>
		<g>
			<path fill="#006496" d="M1565.562,1352.431v483.846h113.571v-368.976h380.646v145.65h113.572v-103.476
				c0-86.733-70.311-157.044-157.044-157.044H1565.562z"/>
		</g>
		<g>
			<path fill="#006496" d="M965.09,1721.406v-439.571h484.931v-114.87H999.276c-86.733,0-157.044,70.311-157.044,157.044v355.224
				c0,86.733,70.311,157.044,157.044,157.044h450.745v-114.87H965.09z"/>
		</g>
	</g>
</g>
</svg>
